<?xml version="1.0" encoding="UTF-8" standalone="no"?>
<!-- Created with Inkscape (http://www.inkscape.org/) -->

<svg
   xmlns:dc="http://purl.org/dc/elements/1.1/"
   xmlns:cc="http://creativecommons.org/ns#"
   xmlns:rdf="http://www.w3.org/1999/02/22-rdf-syntax-ns#"
   xmlns:svg="http://www.w3.org/2000/svg"
   xmlns="http://www.w3.org/2000/svg"
   xmlns:sodipodi="http://sodipodi.sourceforge.net/DTD/sodipodi-0.dtd"
   xmlns:inkscape="http://www.inkscape.org/namespaces/inkscape"
   width="30"
   height="30"
   id="svg2"
   sodipodi:version="0.32"
   inkscape:version="0.48.4 r9939"
   sodipodi:docname="sa.svg"
   inkscape:output_extension="org.inkscape.output.svg.inkscape"
   version="1.1">
  <defs
     id="defs4">
    <clipPath
       clipPathUnits="userSpaceOnUse"
       id="clipPath17670-8">
      <path
         inkscape:connector-curvature="0"
         d="m 0,288.75 201.25,0 L 201.25,0 0,0 0,288.75 z"
         id="path17672-4" />
    </clipPath>
    <clipPath
       clipPathUnits="userSpaceOnUse"
       id="clipPath18098-9">
      <path
         inkscape:connector-curvature="0"
         d="m 0,288.75 201.25,0 L 201.25,0 0,0 0,288.75 z"
         id="path18100-2" />
    </clipPath>
    <clipPath
       clipPathUnits="userSpaceOnUse"
       id="clipPath17356-3">
      <path
         inkscape:connector-curvature="0"
         d="m 0,288.75 201.25,0 L 201.25,0 0,0 0,288.75 z"
         id="path17358-6" />
    </clipPath>
    <clipPath
       clipPathUnits="userSpaceOnUse"
       id="clipPath18256-8">
      <path
         inkscape:connector-curvature="0"
         d="m 0,288.75 201.25,0 L 201.25,0 0,0 0,288.75 z"
         id="path18258-5" />
    </clipPath>
    <clipPath
       clipPathUnits="userSpaceOnUse"
       id="clipPath17038-7">
      <path
         inkscape:connector-curvature="0"
         d="m 0,288.75 201.25,0 L 201.25,0 0,0 0,288.75 z"
         id="path17040-4" />
    </clipPath>
  </defs>
  <sodipodi:namedview
     id="base"
     pagecolor="#ffffff"
     bordercolor="#666666"
     borderopacity="1.0"
     inkscape:pageopacity="0.0"
     inkscape:pageshadow="2"
     inkscape:zoom="10.2"
     inkscape:cx="15"
     inkscape:cy="15"
     inkscape:document-units="px"
     inkscape:current-layer="layer1"
     inkscape:window-width="656"
     inkscape:window-height="1029"
     inkscape:window-x="0"
     inkscape:window-y="19"
     showgrid="false"
     inkscape:window-maximized="0" />
  <metadata
     id="metadata7">
    <rdf:RDF>
      <cc:Work
         rdf:about="">
        <dc:format>image/svg+xml</dc:format>
        <dc:type
           rdf:resource="http://purl.org/dc/dcmitype/StillImage" />
        <dc:title></dc:title>
      </cc:Work>
    </rdf:RDF>
  </metadata>
  <g
     inkscape:label="Capa 1"
     inkscape:groupmode="layer"
     id="layer1"
     transform="translate(0,-1022.3622)">
    <path
       sodipodi:type="arc"
       style="color:#000000;fill:#d4d4d4;stroke:#d4d4d4;stroke-width:1.02777779;stroke-opacity:1;marker:none;visibility:visible;display:inline;overflow:visible;enable-background:accumulate"
       id="path16617-6-6"
       sodipodi:cx="15.16226"
       sodipodi:cy="16.56851"
       sodipodi:rx="14.008413"
       sodipodi:ry="14.008413"
       d="m 29.170673,16.56851 c 0,7.736633 -6.27178,14.008413 -14.008413,14.008413 -7.736633,0 -14.0084133,-6.27178 -14.0084133,-14.008413 0,-7.736633 6.2717803,-14.0084133 14.0084133,-14.0084133 7.736633,0 14.008413,6.2717803 14.008413,14.0084133 z"
       transform="matrix(0.97297297,0,0,0.97297297,330.50795,953.63241)" />
    <path
       style="fill:#d4d4d4;stroke:#d4d4d4;stroke-width:1px;stroke-linecap:butt;stroke-linejoin:miter;stroke-opacity:1"
       d="m 345.29648,957.89011 0,11.863 0,0"
       id="path16623-6-2"
       inkscape:connector-curvature="0"
       inkscape:transform-center-y="-5.9314904" />
    <path
       style="fill:#d4d4d4;stroke:#d4d4d4;stroke-width:1px;stroke-linecap:butt;stroke-linejoin:miter;stroke-opacity:1"
       d="m 357.15947,969.75311 -1.70877,0 0,0"
       id="path16623-4-2-0"
       inkscape:connector-curvature="0"
       inkscape:transform-center-x="-0.854382" />
    <path
       style="fill:#d4d4d4;stroke:#d4d4d4;stroke-width:0.99999994px;stroke-linecap:butt;stroke-linejoin:miter;stroke-opacity:1"
       d="m 345.29648,981.61611 0,-2.0181 0,0"
       id="path16623-4-3-9-0"
       inkscape:connector-curvature="0"
       inkscape:transform-center-y="1.0091015" />
    <path
       style="fill:#d4d4d4;stroke:#d4d4d4;stroke-width:1px;stroke-linecap:butt;stroke-linejoin:miter;stroke-opacity:1"
       d="m 333.43348,969.75311 11.863,0 0,0"
       id="path16623-4-3-4-1-0"
       inkscape:connector-curvature="0"
       inkscape:transform-center-x="5.9315" />
    <path
       inkscape:connector-curvature="0"
       sodipodi:nodetypes="cccccccccccccc"
       id="path9518-0-7"
       d="m 14.999994,1025.9915 -11.2422196,9.9235 2.2484301,0 0,12.8177 6.7453475,0 0,-7.5644 4.651059,0 1.3e-5,7.5644 6.591159,0 0,-12.8177 2.248444,0 -11.242237,-9.9235 0,0 0,0 z"
       style="font-size:12px;fill:none;stroke:none" />
    <path
       d="m 23.01361,1029.3337 c 2.18597,2.1857 3.27913,4.8626 3.27913,8.0284 0,3.1665 -1.07421,5.8145 -3.22263,7.9441 -2.27998,2.2429 -4.97465,3.364 -8.08397,3.364 -3.07177,0 -5.7197699,-1.112 -7.9432699,-3.3359 -2.22385,-2.2237 -3.33561,-4.8809 -3.33561,-7.9722 0,-3.0908 1.11176,-5.767 3.33561,-8.0284 2.16702,-2.1864 4.8150099,-3.2795 7.9432699,-3.2795 3.16617,0 5.84154,1.0931 8.02747,3.2795 z m -14.4990499,1.4705 c -1.84811,1.8665 -2.77182,4.053 -2.77182,6.561 0,2.5073 0.9146,4.6752 2.74342,6.5035 1.8291599,1.829 4.0067099,2.7431 6.5333299,2.7431 2.52661,0 4.72273,-0.9232 6.58944,-2.7708 1.77236,-1.7161 2.65888,-3.8738 2.65888,-6.4758 0,-2.5825 -0.90091,-4.7746 -2.70168,-6.5751 -1.80041,-1.8003 -3.98251,-2.7007 -6.54664,-2.7007 -2.56415,0 -4.73292,0.905 -6.5049299,2.7147 z"
       inkscape:connector-curvature="0"
       style="fill:#d4d4d4;fill-opacity:1"
       sodipodi:nodetypes="cscscscsccscscscscc"
       id="path18803-9-4" />
    <path
       d="m 14.984865,1026.0558 c 3.17117,0 5.85026,1.093 8.03918,3.2783 2.18889,2.1863 3.2838,4.8627 3.2838,8.0284 0,3.1652 -1.07599,5.8133 -3.22703,7.9432 -2.28354,2.2427 -4.98251,3.363 -8.09595,3.363 -3.07468,0 -5.7263099,-1.1119 -7.9530799,-3.3355 -2.22673,-2.2227 -3.33963,-4.8803 -3.33963,-7.9707 0,-3.0909 1.11289,-5.7674 3.33963,-8.0284 2.16997,-2.1853 4.8216299,-3.2783 7.9530799,-3.2783 z m -8.7489199,8.2687 c -0.33691,0.9543 -0.50629,1.9668 -0.50629,3.038 0,2.5061 0.91605,4.6725 2.74628,6.5012 1.8301899,1.8271 4.0096499,2.7412 6.5382699,2.7412 2.52765,0 4.726,-0.923 6.59408,-2.77 0.62554,-0.6043 1.14132,-1.2634 1.54538,-1.9778 l -4.26327,-1.8976 c -0.28861,1.4339 -1.56712,2.4025 -3.11155,2.516 l 0,1.7435 -1.29841,0 0,-1.7435 c -1.26904,-0.014 -2.49453,-0.5333 -3.43235,-1.3535 l 1.55766,-1.5703 c 0.74953,0.7058 1.49996,1.0224 2.5239,1.0224 0.66338,0 1.3987,-0.2593 1.3987,-1.1238 0,-0.3061 -0.1183,-0.5189 -0.30473,-0.6793 l -1.0788,-0.4788 -1.34192,-0.5986 c -0.66433,-0.2962 -1.22742,-0.5454 -1.79144,-0.7971 l -5.7755099,-2.572 z m 8.7782599,-6.2338 c -2.56742,0 -4.73646,0.9041 -6.5108299,2.7138 -0.48266,0.4874 -0.90283,0.996 -1.25863,1.5273 l 4.3219499,1.9247 c 0.39083,-1.1994 1.53021,-1.927 2.91375,-2.0074 l 0,-1.7436 1.29841,0 0,1.7436 c 0.89427,0.043 1.87469,0.2879 2.8409,1.0365 l -1.48576,1.5272 c -0.54793,-0.3888 -1.2397,-0.6624 -1.93241,-0.6624 -0.56215,0 -1.35614,0.1723 -1.35614,0.8787 0,0.1073 0.0369,0.2019 0.10224,0.2871 l 1.44601,0.6425 0.97852,0.4363 c 0.62554,0.2795 1.22362,0.5445 1.81507,0.8081 l 5.79448,2.5794 c 0.19115,-0.7584 0.28767,-1.5656 0.28767,-2.42 0,-2.5819 -0.90564,-4.7681 -2.71695,-6.558 -1.79328,-1.8097 -3.9718,-2.7138 -6.53826,-2.7138 z"
       id="path6374_1_-0-3"
       inkscape:connector-curvature="0"
       style="fill:#d4d4d4;fill-opacity:1" />
  </g>
</svg>
